<?xml version="1.0" ?><!-- Uploaded to: SVG Repo, www.svgrepo.com, Generator: SVG Repo Mixer Tools -->
<svg width="800px" height="800px" viewBox="0 0 512 512" data-name="Layer 1" id="Layer_1" xmlns="http://www.w3.org/2000/svg"><defs><style>.cls-1{fill:#c99771;}.cls-1,.cls-3{stroke:#493527;stroke-miterlimit:10;stroke-width:10px;}.cls-2{fill:#bf8b67;}.cls-3{fill:#936047;}</style></defs><title/><circle class="cls-1" cx="327.76" cy="256" r="100.33"/><circle class="cls-1" cx="184.24" cy="256" r="100.33"/><path class="cls-2" d="M168,249.67a21.5,21.5,0,0,1-3.58,3.84,21.92,21.92,0,0,1-27,.94l-.42-.34c-9.56-7.55-16.18-32.68-9.15-42.31a9.23,9.23,0,0,1,2.74-2.53h0a13.22,13.22,0,0,1,8.64-1.39,41.33,41.33,0,0,1,12.84,4.34c1.43.71,2.82,1.48,4.17,2.26a82.25,82.25,0,0,1,7,4.58,21.78,21.78,0,0,1,8.44,12.84h0c.09.38.16.75.23,1.13A21.8,21.8,0,0,1,168,249.67Z"/><path class="cls-3" d="M155.24,204c-1.07-1.3-2.39-2.38-3.44-3.7a6,6,0,0,1-1.49-4.66c.38-2,2.24-3.42,4-4.5a61.06,61.06,0,0,1,16.55-7c1.59-.41,3.35-.74,4.81,0a6.32,6.32,0,0,1,2,1.89,25.06,25.06,0,0,1,5,13.42c.18,2.75-.17,5.71-1.94,7.81-2,2.4-5.32,3.13-8.39,3.73-2.74.53-5.66,1-8.24,0Z"/><path class="cls-2" d="M222.83,260.22A18.85,18.85,0,0,1,204,241.38c0-.16,0-.31,0-.47.4-10.46,14.5-27.8,24.75-27.79a7.72,7.72,0,0,1,3.14.62h0a11.4,11.4,0,0,1,5.35,5.29,35.74,35.74,0,0,1,3.5,11.12c.23,1.35.4,2.71.54,4a69.69,69.69,0,0,1,.37,7.19A18.71,18.71,0,0,1,237,253.75h0c-.22.25-.45.49-.68.73A18.74,18.74,0,0,1,222.83,260.22Z"/><path class="cls-2" d="M165.7,330S167.41,300,174,299s32.64-16.64,41.79,9-12,34.82-25.05,38.19S165.7,330,165.7,330Z"/><path class="cls-3" d="M249.79,253.26a44.24,44.24,0,0,0-3.13,7.94,19.8,19.8,0,0,1-12.3,12.61,3.6,3.6,0,0,1-1.59.29,3.23,3.23,0,0,1-1.34-.57,18.44,18.44,0,0,1-8.59-14.95c-.14-6.71,3.44-13.3,8.46-18.76a22.55,22.55,0,0,1,8-5.55,10.72,10.72,0,0,1,5.87-1,7.46,7.46,0,0,1,5.2,4.35,16,16,0,0,1-.2,14.81Z"/><path class="cls-2" d="M332.79,281c-2.18,11.55-26.91,45.42-39.92,26.88,0,0-7-10.48,7.32-23.85,7.68-7.15,15.39-10.16,21.44-10.44a16.41,16.41,0,0,1,6,.72,9.55,9.55,0,0,1,3.94,2.35,6.72,6.72,0,0,1,1.09,1.42A4.5,4.5,0,0,1,332.79,281Z"/><path class="cls-3" d="M158.88,274.73a20.25,20.25,0,0,0-16.79,14.57,9.47,9.47,0,0,0,.11,6.2c1.06,2.44,3.55,3.91,5.88,5.21,7.38,4.14,15,8.35,23.38,9.44a14.42,14.42,0,0,0,6.24-.3c3.65-1.17,6.15-4.44,8.36-7.56,2.64-3.73,5.3-7.84,5.27-12.41,0-4.16-2.41-8.07-5.65-10.7a28.1,28.1,0,0,0-11.31-5.07Z"/><path class="cls-3" d="M340.41,276.43C333,279.7,329,288.21,328.79,296.31a14,14,0,0,0,1.36,7,13.5,13.5,0,0,0,3.73,4.06,27.38,27.38,0,0,0,44-20.38c.14-2.92-.29-6.1-2.33-8.2-1.68-1.74-4.15-2.42-6.51-2.94a89.1,89.1,0,0,0-18.27-2Z"/><path class="cls-2" d="M302.22,241s-4.09-31.19,25.94-56.59,48.51-3.81,43.16,18.32S319.34,288.88,302.22,241Z"/><path class="cls-3" d="M352.26,216.12a16.44,16.44,0,0,0-9.91,1.56,22,22,0,0,0-11.67,16.16,3,3,0,0,0,.16,1.75,3.08,3.08,0,0,0,1.5,1.17,91.28,91.28,0,0,0,26.84,8,7.58,7.58,0,0,0,4.15-.25c1.84-.84,2.73-2.94,3.19-4.91a22.68,22.68,0,0,0-.81-12.61,16.77,16.77,0,0,0-13.45-10.88Z"/></svg>