<?xml version="1.0" encoding="iso-8859-1"?>
<!-- Uploaded to: SVG Repo, www.svgrepo.com, Generator: SVG Repo Mixer Tools -->
<svg height="800px" width="800px" version="1.1" id="Layer_1" xmlns="http://www.w3.org/2000/svg" xmlns:xlink="http://www.w3.org/1999/xlink" 
	 viewBox="0 0 512 512" xml:space="preserve">
<path style="fill:#DE5E88;" d="M292.356,17.45c-20.371,0-36.353,22.713-36.353,22.713S240.927,17.45,219.641,17.45
	c-20.704,0-37.612,17.077-38.718,37.752c-0.624,11.68,3.143,20.57,8.447,28.621c10.602,16.086,56.95,54.811,66.701,54.811
	c9.952,0,55.888-38.584,66.559-54.811c5.316-8.087,9.071-16.941,8.446-28.621C329.969,34.527,313.062,17.45,292.356,17.45"/>
<polygon style="fill:#CFEB70;" points="40.415,318.168 82.562,494.55 429.438,494.55 471.584,318.168 "/>
<path style="fill:#FECC85;" d="M460.043,259.295C434.206,187.884,352.641,135.722,256,135.722S77.794,187.885,51.957,259.295
	c-21.893,8.664-37.388,30.008-37.388,54.984c0,32.655,26.472,59.128,59.129,59.128c31.347,0,56.983-24.398,58.988-55.239h3.561
	c2.005,30.842,27.639,55.239,58.988,55.239s56.983-24.398,58.988-55.239h3.559c2.005,30.842,27.639,55.239,58.988,55.239
	s56.983-24.398,58.988-55.239h3.561c2.005,30.842,27.639,55.239,58.988,55.239c32.655,0,59.129-26.472,59.129-59.128
	C497.431,289.303,481.936,267.959,460.043,259.295z"/>
<path d="M374.317,275.703c-0.947,0-1.909-0.101-2.856-0.29c-0.918-0.175-1.836-0.453-2.724-0.817
	c-0.874-0.364-1.719-0.816-2.506-1.34c-0.801-0.539-1.544-1.151-2.215-1.821s-1.282-1.413-1.821-2.215
	c-0.524-0.787-0.962-1.632-1.326-2.507c-0.364-0.887-0.656-1.807-0.845-2.724c-0.189-0.946-0.277-1.909-0.277-2.856
	c0-0.946,0.087-1.909,0.277-2.84c0.189-0.934,0.481-1.852,0.845-2.724c0.364-0.876,0.801-1.734,1.326-2.52
	c0.539-0.801,1.151-1.544,1.821-2.215s1.413-1.282,2.215-1.807c0.787-0.524,1.632-0.976,2.506-1.34
	c0.889-0.364,1.807-0.641,2.724-0.83c1.879-0.379,3.817-0.379,5.697,0c0.932,0.189,1.85,0.466,2.724,0.83
	c0.889,0.364,1.734,0.816,2.52,1.34c0.801,0.524,1.544,1.136,2.215,1.807s1.282,1.413,1.807,2.215
	c0.524,0.787,0.976,1.632,1.34,2.52c0.364,0.874,0.656,1.791,0.83,2.724c0.189,0.932,0.291,1.894,0.291,2.84
	c0,3.848-1.559,7.591-4.269,10.3C381.907,274.142,378.148,275.703,374.317,275.703z"/>
<g>
	<circle style="fill:#DE5E88;" cx="391.344" cy="123.213" r="40.309"/>
	<circle style="fill:#DE5E88;" cx="120.662" cy="123.213" r="40.309"/>
</g>
<path d="M512,314.28c0-28.19-15.697-53.35-40.511-65.808c-11.555-28.369-31.621-54.298-57.866-75.125
	c19.183-8.561,32.594-27.804,32.594-50.131c0-30.26-24.618-54.878-54.878-54.878c-30.26,0-54.878,24.618-54.878,54.876
	c0,3.495,0.342,6.91,0.97,10.226c-11.328-3.567-22.995-6.375-34.922-8.401c12.234-10.481,26.099-23.794,32.296-33.213
	c5.09-7.744,11.749-20.046,10.819-37.404c-1.547-28.902-24.945-51.543-53.269-51.543c-15.059,0-27.62,7.981-36.18,15.592
	c-8.444-7.644-20.967-15.592-36.535-15.592c-28.323,0-51.721,22.641-53.267,51.544c-0.928,17.394,5.736,29.683,10.831,37.417
	c6.15,9.33,20.097,22.655,32.424,33.174c-11.976,2.027-23.69,4.844-35.061,8.425c0.628-3.314,0.97-6.73,0.97-10.226
	c0-30.26-24.618-54.878-54.878-54.878s-54.876,24.619-54.876,54.878c0,22.327,13.411,41.57,32.594,50.131
	c-26.245,20.828-46.311,46.757-57.866,75.125C15.697,260.931,0,286.091,0,314.28c0,28.572,16.354,53.379,40.183,65.601
	l28.209,118.054c1.566,6.558,7.429,11.183,14.17,11.183h346.874c6.741,0,12.604-4.626,14.17-11.183l28.209-118.054
	C495.646,367.659,512,342.852,512,314.28z M391.339,97.476c14.193,0,25.739,11.548,25.739,25.739s-11.546,25.739-25.739,25.739
	c-14.192,0-25.739-11.548-25.739-25.739S377.147,97.476,391.339,97.476z M201.537,75.809c-4.68-7.102-6.437-12.847-6.065-19.827
	c0.707-13.211,11.549-23.961,24.169-23.961c10.848,0,21.192,11.738,24.223,16.2c2.649,3.991,7.107,6.399,11.897,6.483
	c4.789,0.125,9.332-2.213,12.122-6.106c3.083-4.301,14.193-16.577,24.473-16.577c12.621,0,23.465,10.749,24.172,23.962
	c0.373,6.963-1.386,12.712-6.07,19.836c-7.579,11.524-36.486,36.376-50.701,45.395c-1.253-0.017-6.087-0.019-7.254-0.004
	C238.249,112.098,208.861,86.922,201.537,75.809z M120.661,97.476c14.192,0,25.739,11.548,25.739,25.739
	s-11.546,25.739-25.739,25.739s-25.739-11.548-25.739-25.739S106.467,97.476,120.661,97.476z M417.938,479.98H94.06l-21.994-92.045
	c0.545,0.012,1.085,0.041,1.632,0.041c25.055,0,47.421-12.666,60.767-32.071c13.345,19.403,35.712,32.071,60.767,32.071
	s47.421-12.666,60.767-32.071c13.345,19.403,35.712,32.071,60.767,32.071c25.056,0,47.421-12.666,60.767-32.071
	c13.345,19.403,35.712,32.071,60.767,32.071c0.548,0,1.087-0.031,1.632-0.041L417.938,479.98z M438.302,358.839
	c-23.407,0-42.931-18.28-44.448-41.614c-0.498-7.663-6.859-13.625-14.539-13.625h-3.561c-7.679,0-14.04,5.962-14.539,13.625
	c-1.517,23.336-21.039,41.614-44.448,41.614s-42.933-18.28-44.449-41.614c-0.498-7.663-6.859-13.625-14.539-13.625h-3.559
	c-7.679,0-14.04,5.962-14.539,13.625c-1.517,23.336-21.041,41.614-44.449,41.614s-42.933-18.28-44.448-41.614
	c-0.498-7.663-6.859-13.625-14.539-13.625h-3.561c-7.679,0-14.04,5.962-14.539,13.625c-1.517,23.336-21.041,41.614-44.448,41.614
	c-24.572,0-44.561-19.989-44.561-44.558c0-16.195,8.577-30.731,22.307-38.603c0.195,0.009,0.388,0.031,0.584,0.031h278.811
	c8.047,0,14.569-6.524,14.569-14.569c0-8.045-6.523-14.569-14.569-14.569H73.548c29.284-54.97,96.343-92.799,171.955-96.027
	l21.191,0.01c83.393,3.628,156.363,49.34,179.649,113.701c1.421,3.925,4.457,7.054,8.338,8.59
	c17.119,6.775,28.18,23.04,28.18,41.438C482.862,338.85,462.873,358.839,438.302,358.839z"/>
</svg>