<?xml version="1.0" standalone="no"?>
<!DOCTYPE svg PUBLIC "-//W3C//DTD SVG 20010904//EN"
 "http://www.w3.org/TR/2001/REC-SVG-20010904/DTD/svg10.dtd">
<svg version="1.0" xmlns="http://www.w3.org/2000/svg"
 width="512.000000pt" height="512.000000pt" viewBox="0 0 512.000000 512.000000"
 preserveAspectRatio="xMidYMid meet">

<g transform="translate(0.000000,512.000000) scale(0.100000,-0.100000)"
fill="#000000" stroke="none">
<path d="M2315 5109 c-781 -80 -1470 -498 -1901 -1154 -435 -663 -533 -1523
-258 -2274 84 -230 253 -532 400 -713 57 -71 89 -88 128 -70 21 9 30 3 91 -58
66 -67 67 -69 56 -100 -16 -48 0 -73 104 -157 610 -498 1409 -690 2178 -523
465 101 913 347 1256 691 462 464 722 1060 748 1714 24 620 -186 1242 -582
1723 -82 99 -109 118 -151 102 -23 -9 -32 -4 -99 56 -66 61 -72 69 -63 90 18
39 1 71 -70 128 -181 147 -483 316 -713 400 -139 51 -347 104 -501 127 -154
23 -482 33 -623 18z m463 -510 c316 -34 632 -147 892 -317 135 -88 213 -151
328 -265 412 -406 632 -959 609 -1532 -12 -310 -79 -570 -218 -846 -62 -125
-193 -329 -211 -329 -6 0 -57 46 -114 102 -98 96 -104 104 -104 142 0 23 -4
56 -9 74 -11 38 -627 1108 -653 1134 -23 23 -70 23 -99 0 -37 -31 -29 -69 39
-186 34 -58 62 -110 62 -116 0 -5 -24 -23 -52 -40 -40 -22 -66 -30 -103 -30
l-50 0 -425 428 -425 427 3 238 3 237 309 0 308 0 4 -247 c3 -277 2 -272 95
-427 52 -88 71 -106 109 -106 36 0 74 37 74 72 0 10 -28 67 -62 126 l-63 107
-3 236 -4 237 43 29 c24 15 54 44 67 63 22 34 23 40 20 211 -3 175 -3 176 -31
212 -56 74 -41 72 -534 75 -291 2 -457 -1 -483 -8 -49 -13 -99 -54 -116 -97
-10 -23 -14 -80 -14 -196 0 -187 6 -205 88 -260 l42 -28 0 -165 c0 -90 -3
-164 -8 -164 -4 0 -184 177 -401 394 l-393 394 53 39 c277 204 631 342 979
382 109 12 336 13 448 0z m206 -445 c14 -5 16 -27 16 -140 0 -130 -1 -134 -22
-139 -13 -3 -210 -4 -438 -3 l-415 3 -3 134 c-2 101 1 136 10 143 15 9 828 11
852 2z m-1109 -1283 c-3 -8 -161 -284 -351 -613 -190 -329 -350 -614 -356
-635 -5 -20 -8 -64 -6 -98 7 -107 66 -192 167 -239 46 -21 52 -21 1111 -24
l1066 -2 158 -159 158 -159 -57 -42 c-241 -178 -553 -308 -875 -365 -131 -22
-379 -30 -524 -16 -400 39 -785 197 -1096 448 -97 79 -271 258 -342 353 -402
537 -522 1212 -327 1845 67 217 172 427 302 604 l39 53 469 -468 c308 -308
467 -474 464 -483z m271 -253 l145 -143 -65 -12 c-35 -7 -92 -26 -126 -43 -83
-42 -149 -43 -221 -3 -28 15 -53 33 -56 39 -5 13 157 303 170 304 4 0 73 -64
153 -142z m-349 -328 c26 -16 77 -37 113 -46 81 -21 162 -8 254 38 84 42 137
41 236 -6 41 -20 84 -36 95 -36 13 0 161 -141 435 -415 l415 -415 -959 0
c-942 0 -960 0 -1001 20 -52 25 -79 71 -74 126 3 29 59 134 213 402 115 199
213 362 217 362 4 0 29 -13 56 -30z m1723 -202 c74 -128 140 -244 149 -258 8
-14 -85 74 -207 194 l-221 220 67 38 c37 20 70 37 73 38 3 0 65 -105 139 -232z"/>
</g>
</svg>
